<?xml version="1.0" standalone="no"?>
<!DOCTYPE svg PUBLIC "-//W3C//DTD SVG 20010904//EN"
 "http://www.w3.org/TR/2001/REC-SVG-20010904/DTD/svg10.dtd">
<svg version="1.0" xmlns="http://www.w3.org/2000/svg"
 width="512.000000pt" height="512.000000pt" viewBox="0 0 512.000000 512.000000"
 preserveAspectRatio="xMidYMid meet">
<metadata>
Created by potrace 1.14, written by Peter Selinger 2001-2017
</metadata>
<g transform="translate(0.000000,512.000000) scale(0.100000,-0.100000)"
fill="#000000" stroke="none">
<path d="M354 5096 c-168 -54 -305 -201 -343 -366 -10 -43 -16 -570 -7 -570 3
0 34 22 70 49 176 133 407 220 590 221 263 1 433 -133 491 -390 34 -151 15
-466 -50 -804 -17 -86 -14 -109 5 -49 53 162 185 455 273 605 217 368 497 579
836 629 96 13 231 7 304 -16 170 -52 306 -187 371 -367 56 -157 71 -388 40
-609 -8 -61 -13 -113 -11 -115 2 -2 18 35 37 84 145 383 352 690 570 844 346
245 810 251 1028 13 70 -76 124 -179 153 -290 33 -121 37 -376 11 -555 -12
-74 -86 -443 -167 -819 -80 -377 -153 -728 -161 -780 -22 -146 -20 -321 5
-401 39 -126 133 -197 273 -207 131 -9 244 34 381 144 l67 55 0 1642 c0 1788
3 1685 -57 1805 -36 72 -142 178 -214 214 -121 60 28 57 -2294 56 l-2130 0
-71 -23z"/>
<path d="M385 3872 c-102 -38 -196 -103 -312 -215 l-73 -70 0 -1576 c0 -1717
-3 -1620 57 -1740 57 -115 205 -231 333 -260 63 -15 4277 -15 4340 0 128 29
276 145 333 260 50 101 57 145 57 382 0 119 -3 217 -6 217 -3 0 -24 -13 -47
-29 -168 -115 -388 -169 -612 -150 -202 17 -344 78 -466 199 -203 201 -264
457 -209 882 26 203 40 273 186 948 136 622 159 760 151 885 -9 132 -44 202
-120 246 -34 20 -56 24 -118 24 -69 0 -83 -4 -165 -44 -75 -37 -105 -61 -190
-145 -145 -145 -247 -307 -363 -578 -204 -475 -348 -1059 -460 -1871 -17 -120
-38 -247 -46 -283 -45 -193 -132 -266 -320 -266 -155 0 -237 51 -267 165 -16
65 -16 298 1 427 18 143 84 523 156 910 138 741 184 1047 192 1285 5 142 3
180 -11 228 -35 122 -136 186 -271 174 -230 -22 -467 -239 -648 -594 -255
-502 -425 -1137 -572 -2145 -44 -303 -78 -382 -184 -430 -51 -23 -199 -28
-267 -9 -135 37 -182 148 -170 401 8 170 24 291 111 815 166 1004 225 1460
225 1727 0 140 -9 176 -54 217 -36 33 -121 39 -191 13z"/>
</g>
</svg>
